<svg width="7" height="10" viewBox="0 0 7 10" fill="none" xmlns="http://www.w3.org/2000/svg">
<path fill-rule="evenodd" clip-rule="evenodd" d="M0 4.46446C0 2.38414 1.53755 0.702698 3.39738 0.702698C5.26245 0.702698 6.8 2.38414 6.8 4.46446C6.8 5.51276 6.4628 6.48599 5.9078 7.31088C5.29552 8.22079 4.54086 9.01357 3.69142 9.63586C3.497 9.77967 3.32155 9.79053 3.10818 9.63586C2.25389 9.01357 1.49923 8.22079 0.8922 7.31088C0.336793 6.48599 0 5.51276 0 4.46446ZM2.27767 4.58159C2.27767 5.27849 2.78065 5.82661 3.39736 5.82661C4.01448 5.82661 4.52229 5.27849 4.52229 4.58159C4.52229 3.89011 4.01448 3.3153 3.39736 3.3153C2.78065 3.3153 2.27767 3.89011 2.27767 4.58159Z" fill="black"/>
</svg>
