<svg width="8" height="9" viewBox="0 0 8 9" fill="none" xmlns="http://www.w3.org/2000/svg">
<path fill-rule="evenodd" clip-rule="evenodd" d="M5.80961 0.702698C6.33111 0.702698 6.83278 0.935735 7.20183 1.35388C7.57128 1.77115 7.77778 2.33396 7.77778 2.92315V6.39673C7.77778 7.62348 6.895 8.61719 5.80961 8.61719H1.96778C0.882389 8.61719 0 7.62348 0 6.39673V2.92315C0 1.69641 0.8785 0.702698 1.96778 0.702698H5.80961ZM6.42831 3.57828L6.45942 3.54311C6.55236 3.4156 6.55236 3.23093 6.45514 3.10341C6.40108 3.0379 6.32681 2.99789 6.24942 2.98909C6.16775 2.98426 6.08997 3.01548 6.03125 3.07703L4.27775 4.65993C4.0522 4.87142 3.72903 4.87142 3.49997 4.65993L1.74997 3.07703C1.62903 2.9759 1.46181 2.98909 1.36108 3.10781C1.25608 3.22653 1.24442 3.4156 1.33347 3.5475L1.38442 3.60467L3.15386 5.16558C3.37164 5.35904 3.63569 5.46457 3.91219 5.46457C4.18792 5.46457 4.45664 5.35904 4.67403 5.16558L6.42831 3.57828Z" fill="black"/>
</svg>
