<svg width="353" height="104" viewBox="0 0 353 104" fill="none" xmlns="http://www.w3.org/2000/svg">
<path d="M72.2957 37C72.2957 38.4974 71.9102 39.8059 71.3399 40.7085C70.7615 41.6238 70.0875 42 69.5045 42C68.9215 42 68.2475 41.6238 67.6692 40.7085C67.0988 39.8059 66.7134 38.4974 66.7134 37C66.7134 35.5026 67.0988 34.1941 67.6692 33.2915C68.2475 32.3762 68.9215 32 69.5045 32C70.0875 32 70.7615 32.3762 71.3399 33.2915C71.9102 34.1941 72.2957 35.5026 72.2957 37Z" stroke="#FF6161" stroke-opacity="0.25" stroke-width="2"/>
<path d="M337.044 98C337.044 99.4974 336.659 100.806 336.088 101.708C335.51 102.624 334.836 103 334.253 103C333.67 103 332.996 102.624 332.418 101.708C331.847 100.806 331.462 99.4974 331.462 98C331.462 96.5026 331.847 95.1941 332.418 94.2915C332.996 93.3762 333.67 93 334.253 93C334.836 93 335.51 93.3762 336.088 94.2915C336.659 95.1941 337.044 96.5026 337.044 98Z" stroke="#FF6161" stroke-opacity="0.25" stroke-width="2"/>
<path d="M250.48 27C250.48 28.2212 250.165 29.2797 249.709 30.0014C249.245 30.7357 248.729 31 248.32 31C247.912 31 247.396 30.7357 246.932 30.0014C246.476 29.2797 246.161 28.2212 246.161 27C246.161 25.7788 246.476 24.7203 246.932 23.9986C247.396 23.2643 247.912 23 248.32 23C248.729 23 249.245 23.2643 249.709 23.9986C250.165 24.7203 250.48 25.7788 250.48 27Z" stroke="#FF6161" stroke-opacity="0.25" stroke-width="2"/>
<path d="M64.7133 100.5C64.7133 101.307 64.5046 101.991 64.2202 102.441C63.9277 102.904 63.6486 103 63.5018 103C63.355 103 63.0759 102.904 62.7834 102.441C62.4989 101.991 62.2903 101.307 62.2903 100.5C62.2903 99.693 62.4989 99.0095 62.7834 98.5593C63.0759 98.0964 63.355 98 63.5018 98C63.6486 98 63.9277 98.0964 64.2202 98.5593C64.5046 99.0095 64.7133 99.693 64.7133 100.5Z" stroke="#FF6161" stroke-opacity="0.25" stroke-width="2"/>
<path d="M310.19 37.5121L310.19 30.4811L314.038 33.9966L310.19 37.5121Z" stroke="#95B9FF" stroke-opacity="0.6" stroke-width="2"/>
<path d="M7.06336 87.8085L4.34729 93.0506L2.83686 86.7069L7.06336 87.8085Z" stroke="#95B9FF" stroke-opacity="0.6" stroke-width="2"/>
<path d="M129.417 10.0386L131.436 7.18496L131.988 11.3792L129.417 10.0386Z" stroke="#95B9FF" stroke-opacity="0.6" stroke-width="2"/>
<line y1="-1" x2="7.09738" y2="-1" transform="matrix(-0.534162 -0.845382 0.534162 -0.845382 262.221 102)" stroke="#73D27C" stroke-opacity="0.67" stroke-width="2"/>
<line y1="-1" x2="7.09738" y2="-1" transform="matrix(-0.534162 -0.845382 0.534162 -0.845382 21.4832 22)" stroke="#73D27C" stroke-opacity="0.67" stroke-width="2"/>
<line y1="-1" x2="7.09738" y2="-1" transform="matrix(-0.534162 -0.845382 0.534162 -0.845382 119.421 84)" stroke="#73D27C" stroke-opacity="0.67" stroke-width="2"/>
</svg>
